<?xml version="1.0" encoding="utf-8"?>
<!-- Designed by Vexels.com - 2016 All Rights Reserved - https://vexels.com/terms-and-conditions/  -->

<svg version="1.1" id="Capa_1" xmlns="http://www.w3.org/2000/svg" xmlns:xlink="http://www.w3.org/1999/xlink" x="0px" y="0px"
	 width="1200px" height="1200px" viewBox="0 0 1200 1200" enable-background="new 0 0 1200 1200" xml:space="preserve">
<g>
	<g>
		<g id="Capa_2">
			<g>
				<g>
					<path fill="#A2CFF0" d="M276.559,233.932c4.67-14.009-21.796-18.683-20.237,4.669c-5.451-18.679-27.242-11.674-24.13,7.004
						c-3.112-8.561-24.13-8.561-31.914-7.004c-8.561,1.557-29.572,13.231-13.229,21.016c-11.677-16.344-48.257-7.005-41.255,16.346
						c7.004,21.792,39.696,21.792,49.813,3.892c5.451,27.239,42.812,28.798,56.044,6.227c0.775,15.568,35.804,15.568,41.253,2.334
						c1.555,17.123,25.686,12.455,34.243,4.671c7.788-7.006,13.232-28.8-3.891-26.464c12.455,0.777,12.455-12.454,5.445-18.682
						c-7.777-6.229-19.456-4.669-26.458,0.779c2.334-9.34-18.685-16.346-22.573-15.568L276.559,233.932z"/>
				</g>
				<g>
					<g>
						<rect x="376.745" y="109.365" fill="#7A9F9E" width="135.014" height="60.854"/>
						<rect x="509.812" y="110.371" fill="#6D908E" width="43.038" height="59.847"/>
						<rect x="376.745" y="109.365" fill="#6F7674" width="176.446" height="14.134"/>
					</g>
					<g>
						<rect x="332.778" y="168.836" fill="#7A9F9E" width="179.472" height="639.216"/>
						<rect x="512.248" y="168.836" fill="#6D908E" width="70.723" height="639.216"/>
						<g>
							<g>
								<rect x="567.563" y="180.33" fill="#627E82" width="10.6" height="634.083"/>
							</g>
							<g>
								<rect x="423.166" y="180.33" fill="#627E82" width="10.604" height="634.083"/>
							</g>
							<g>
								<rect x="519.692" y="180.33" fill="#627E82" width="10.601" height="634.083"/>
							</g>
							<g>
								<g>
									<rect x="326.646" y="175.031" fill="#627E82" width="251.429" height="10.36"/>
								</g>
								<g>
									<rect x="326.646" y="281.986" fill="#627E82" width="251.429" height="10.034"/>
								</g>
								<g>
									<rect x="326.646" y="386.697" fill="#627E82" width="251.429" height="10.03"/>
								</g>
								<g>
									<rect x="326.646" y="491.409" fill="#627E82" width="251.429" height="10.03"/>
								</g>
								<g>
									<rect x="326.646" y="596.12" fill="#627E82" width="251.429" height="10.031"/>
								</g>
								<g>
									<rect x="326.646" y="700.831" fill="#627E82" width="251.429" height="10.027"/>
								</g>
							</g>
							<g>
								<polygon fill="#627E82" points="334.898,294.27 327.441,286.425 429.265,189.661 429.027,205.202 								"/>
							</g>
							<g>
								<polygon fill="#627E82" points="439.721,608.229 431.832,600.814 530.521,495.842 529.712,512.504 								"/>
							</g>
							<g>
								<polygon fill="#627E82" points="340.598,715.771 332.714,708.354 431.396,603.385 430.587,620.047 								"/>
							</g>
							<g>
								<polygon fill="#627E82" points="442.609,814.413 429.247,812.823 527.934,707.851 527.123,724.513 								"/>
							</g>
							<g>
								<polygon fill="#627E82" points="437.43,399.8 429.807,392.115 527.549,295.181 527.596,310.439 								"/>
							</g>
							<g>
								<polygon fill="#627E82" points="339.17,501.345 331.547,493.659 429.288,396.728 428.37,412.948 								"/>
							</g>
							<g>
								<polygon fill="#627E82" points="567.888,496.135 524.72,395.198 534.675,390.939 577.84,491.876 								"/>
							</g>
							<g>
								<polygon fill="#627E82" points="568.164,704.198 524.997,603.266 534.952,599.007 578.115,699.94 								"/>
							</g>
							<g>
								<polygon fill="#627E82" points="526.068,500.21 430.245,394.117 438.28,386.864 534.103,492.955 								"/>
							</g>
							<g>
								
									<rect x="308.947" y="543.667" transform="matrix(-0.6703 -0.7421 0.7421 -0.6703 227.9606 1199.4401)" fill="#627E82" width="142.964" height="10.825"/>
							</g>
							<g>
								
									<rect x="403.572" y="648.435" transform="matrix(-0.6703 -0.7421 0.7421 -0.6703 308.2652 1444.652)" fill="#627E82" width="142.962" height="10.824"/>
							</g>
							<g>
								<polygon fill="#627E82" points="413.937,808.884 333.621,719.962 332.183,702.219 428.006,808.312 								"/>
							</g>
							<g>
								
									<rect x="306.095" y="332.202" transform="matrix(-0.6703 -0.7421 0.7421 -0.6703 380.125 844.1124)" fill="#627E82" width="142.965" height="10.822"/>
							</g>
							<g>
								<polygon fill="#627E82" points="526.068,290.279 430.245,184.185 438.28,176.932 534.103,283.026 								"/>
							</g>
							<g>
								
									<rect x="496.412" y="230.694" transform="matrix(-0.3862 -0.9224 0.9224 -0.3862 546.8168 836.0767)" fill="#627E82" width="110.335" height="10.825"/>
							</g>
							<g>
								<polygon fill="#627E82" points="544.909,603.15 534.368,603.229 572.971,506.128 575.397,528.759 								"/>
							</g>
							<g>
								<polygon fill="#627E82" points="544.909,392.203 534.368,392.281 572.971,295.181 575.397,317.812 								"/>
							</g>
							<g>
								<polygon fill="#627E82" points="546.97,814.336 536.428,814.413 575.031,717.318 577.455,739.945 								"/>
							</g>
						</g>
						<g>
							<rect x="573.696" y="173.971" fill="#6F7674" width="10.604" height="634.081"/>
							<rect x="324.475" y="173.971" fill="#6F7674" width="10.601" height="634.081"/>
							<rect x="429.304" y="173.971" fill="#6F7674" width="10.598" height="634.081"/>
							<rect x="525.826" y="173.971" fill="#6F7674" width="10.603" height="634.081"/>
							<g>
								<rect x="324.475" y="168.668" fill="#6F7674" width="259.736" height="10.36"/>
								<rect x="332.778" y="275.626" fill="#6F7674" width="251.436" height="10.028"/>
								<rect x="332.778" y="380.338" fill="#6F7674" width="251.436" height="10.025"/>
								<rect x="332.778" y="485.049" fill="#6F7674" width="251.436" height="10.026"/>
								<rect x="332.778" y="589.761" fill="#6F7674" width="251.436" height="10.026"/>
								<rect x="332.778" y="694.469" fill="#6F7674" width="251.436" height="10.028"/>
								<rect x="332.778" y="796.99" fill="#6F7674" width="251.436" height="11.062"/>
							</g>
							<g>
								
									<rect x="378.251" y="157.022" transform="matrix(-0.6889 -0.7249 0.7249 -0.6889 483.2194 661.9308)" fill="#6F7674" width="10.823" height="140.485"/>
							</g>
							<g>
								<polygon fill="#6F7674" points="433.76,601.865 425.879,594.454 524.558,489.482 532.446,496.896 								"/>
							</g>
							<g>
								<polygon fill="#6F7674" points="438.547,804.617 430.659,797.204 529.346,692.236 537.229,699.648 								"/>
							</g>
							<g>
								<polygon fill="#6F7674" points="336.813,708.64 328.925,701.223 427.611,596.254 435.492,603.666 								"/>
							</g>
							<g>
								<polygon fill="#6F7674" points="438.413,383.556 430.791,375.866 528.533,278.937 536.154,286.622 								"/>
							</g>
							<g>
								
									<rect x="376.482" y="370.499" transform="matrix(-0.7041 -0.7101 0.7101 -0.7041 338.8377 1019.8415)" fill="#6F7674" width="10.824" height="137.655"/>
							</g>
							<g>
								
									<rect x="502.49" y="431.792" transform="matrix(-0.3932 -0.9195 0.9195 -0.3932 374.5499 1121.5991)" fill="#6F7674" width="109.794" height="10.823"/>
							</g>
							<g>
								
									<rect x="502.766" y="639.862" transform="matrix(-0.3932 -0.9195 0.9195 -0.3932 183.6222 1411.7327)" fill="#6F7674" width="109.791" height="10.823"/>
							</g>
							<g>
								
									<rect x="416.848" y="431.771" transform="matrix(-0.6703 -0.7421 0.7421 -0.6703 491.2222 1092.6138)" fill="#6F7674" width="142.965" height="10.825"/>
							</g>
							<g>
								
									<rect x="315.105" y="537.312" transform="matrix(-0.6703 -0.7421 0.7421 -0.6703 242.9621 1193.3942)" fill="#6F7674" width="142.964" height="10.826"/>
							</g>
							<g>
								<polygon fill="#6F7674" points="525.07,704.148 429.247,598.055 437.284,590.801 533.101,696.896 								"/>
							</g>
							<g>
								<polygon fill="#6F7674" points="426.106,809.202 330.282,703.113 338.316,695.855 434.139,801.949 								"/>
							</g>
							<g>
								
									<rect x="312.23" y="325.842" transform="matrix(-0.6703 -0.7421 0.7421 -0.6703 395.0935 838.042)" fill="#6F7674" width="142.965" height="10.822"/>
							</g>
							<g>
								
									<rect x="416.847" y="221.836" transform="matrix(-0.6703 -0.7421 0.7421 -0.6703 647.0162 741.9544)" fill="#6F7674" width="142.962" height="10.822"/>
							</g>
							<g>
								
									<rect x="502.565" y="224.338" transform="matrix(-0.3862 -0.9224 0.9224 -0.3862 561.2077 832.9374)" fill="#6F7674" width="110.333" height="10.822"/>
							</g>
							<g>
								
									<rect x="546.661" y="281.549" transform="matrix(-0.9254 -0.379 0.379 -0.9254 935.3134 857.588)" fill="#6F7674" width="10.823" height="110.355"/>
							</g>
							<g>
								
									<rect x="546.592" y="490.931" transform="matrix(-0.9253 -0.3791 0.3791 -0.9253 855.7444 1260.7042)" fill="#6F7674" width="10.821" height="110.328"/>
							</g>
							<g>
								
									<rect x="552.267" y="698.031" transform="matrix(-0.9254 -0.3791 0.3791 -0.9254 788.2108 1661.5941)" fill="#6F7674" width="10.822" height="110.343"/>
							</g>
						</g>
					</g>
					<g>
						<polyline fill="#6F7674" points="584.298,814.413 584.298,803.354 324.475,803.354 324.475,814.413 						"/>
					</g>
				</g>
				<g>
					<rect x="651.983" y="127.161" fill="#7A9F9E" width="182.229" height="685.876"/>
					<rect x="834.214" y="127.161" fill="#6D908E" width="71.807" height="685.876"/>
					<g>
						<g>
							<g>
								<rect x="690.313" y="144.541" fill="#627E82" width="10.763" height="656.627"/>
							</g>
							<g>
								<rect x="739.316" y="144.541" fill="#627E82" width="10.766" height="656.627"/>
							</g>
							<g>
								<rect x="788.318" y="144.541" fill="#627E82" width="10.766" height="656.627"/>
							</g>
							<g>
								<rect x="837.323" y="144.541" fill="#627E82" width="10.768" height="656.627"/>
							</g>
							<g>
								<rect x="885.843" y="144.541" fill="#627E82" width="10.762" height="656.627"/>
							</g>
						</g>
						<g>
							<g>
								<rect x="660.644" y="139.03" fill="#627E82" width="235.958" height="11.866"/>
							</g>
							<g>
								<rect x="660.644" y="203.448" fill="#627E82" width="235.958" height="11.869"/>
							</g>
							<g>
								<rect x="660.644" y="265.407" fill="#627E82" width="235.958" height="11.864"/>
							</g>
							<g>
								<rect x="660.644" y="327.363" fill="#627E82" width="235.958" height="11.869"/>
							</g>
							<g>
								<rect x="660.644" y="389.319" fill="#627E82" width="235.958" height="11.867"/>
							</g>
							<g>
								<rect x="660.644" y="451.274" fill="#627E82" width="235.958" height="11.866"/>
							</g>
							<g>
								<rect x="660.644" y="513.231" fill="#627E82" width="235.958" height="11.865"/>
							</g>
							<g>
								<rect x="660.644" y="575.186" fill="#627E82" width="235.958" height="11.87"/>
							</g>
							<g>
								<rect x="660.644" y="637.145" fill="#627E82" width="235.958" height="11.866"/>
							</g>
							<g>
								<rect x="660.644" y="699.098" fill="#627E82" width="235.958" height="11.871"/>
							</g>
							<g>
								<rect x="660.644" y="761.052" fill="#627E82" width="235.958" height="11.87"/>
							</g>
						</g>
					</g>
					<rect x="896.604" y="132.673" fill="#6F7674" width="10.766" height="680.364"/>
					<rect x="651.983" y="132.673" fill="#6F7674" width="10.761" height="680.364"/>
					<g>
						<g>
							<rect x="700.987" y="132.673" fill="#6F7674" width="10.763" height="680.364"/>
							<rect x="749.991" y="132.673" fill="#6F7674" width="10.764" height="680.364"/>
							<rect x="798.992" y="132.673" fill="#6F7674" width="10.768" height="680.364"/>
							<rect x="847.998" y="132.673" fill="#6F7674" width="10.766" height="680.364"/>
						</g>
						<g>
							<rect x="651.983" y="127.161" fill="#6F7674" width="255.294" height="11.867"/>
							<rect x="651.983" y="191.581" fill="#6F7674" width="255.294" height="11.866"/>
							<rect x="651.983" y="253.54" fill="#6F7674" width="255.294" height="11.868"/>
							<rect x="651.983" y="315.494" fill="#6F7674" width="255.294" height="11.868"/>
							<rect x="651.983" y="377.45" fill="#6F7674" width="255.294" height="11.868"/>
							<rect x="651.983" y="439.406" fill="#6F7674" width="255.294" height="11.868"/>
							<rect x="651.983" y="501.362" fill="#6F7674" width="255.294" height="11.869"/>
							<rect x="651.983" y="563.316" fill="#6F7674" width="255.294" height="11.868"/>
							<rect x="651.983" y="625.274" fill="#6F7674" width="255.294" height="11.869"/>
							<rect x="651.983" y="687.231" fill="#6F7674" width="255.294" height="11.864"/>
							<rect x="651.983" y="749.184" fill="#6F7674" width="255.294" height="11.869"/>
							<rect x="651.983" y="801.168" fill="#6F7674" width="255.294" height="11.869"/>
						</g>
					</g>
				</g>
				<rect x="50" y="813.037" fill="#B8CC73" width="1100" height="18.616"/>
				<g>
					<polygon fill="#616F27" points="1003.93,589.064 945.512,701.967 969.541,701.967 928.735,794.357 1003.723,794.357 					"/>
					<polygon fill="#899D34" points="1003.53,589.064 1061.948,701.967 1037.918,701.967 1078.727,794.357 1003.737,794.357 					
						"/>
					<rect x="991.703" y="794.278" fill="#A06A2D" width="12.102" height="18.76"/>
					<rect x="1003.762" y="794.278" fill="#73582D" width="12.104" height="18.76"/>
				</g>
				<g>
					<path fill="#A2CFF0" d="M959.073,367.743c-4.082-12.25,19.057-16.333,17.691,4.083c4.766-16.334,23.823-10.209,21.102,6.126
						c2.722-7.487,21.104-7.487,27.902-6.126c7.49,1.36,25.86,11.569,11.572,18.376c10.207-14.292,42.195-6.126,36.068,14.292
						c-6.123,19.056-34.709,19.056-43.557,3.403c-4.765,23.82-37.433,25.184-49.002,5.442c-0.681,13.614-31.308,13.614-36.07,2.042
						c-1.36,14.977-22.465,10.893-29.949,4.085c-6.805-6.127-11.568-25.183,3.404-23.14c-10.889,0.682-10.889-10.89-4.762-16.335
						c6.803-5.443,17.012-4.082,23.137,0.683c-2.039-8.167,16.336-14.292,19.738-13.612L959.073,367.743z"/>
				</g>
				<g>
					<g>
						<path fill="#627E82" d="M274.741,693.092c-11.079,0-20.091-9.363-20.091-20.867c0-11.506,9.012-20.865,20.091-20.865
							c11.076,0,20.088,9.359,20.088,20.865C294.829,683.729,285.818,693.092,274.741,693.092z"/>
						<path fill="#536C6F" d="M274.741,651.358c0.264,3.23,0.334,39.992,0.488,41.732c10.345-0.725,19.601-9.863,19.601-20.867
							C294.829,661.013,285.428,651.821,274.741,651.358z"/>
						<path fill="#EBECEE" d="M291.575,672.225c0,9.658-7.537,17.484-16.835,17.484c-9.301,0-16.836-7.826-16.836-17.484
							c0-9.654,7.535-17.486,16.836-17.486C284.039,654.737,291.575,662.569,291.575,672.225z"/>
						<path fill="#A6A5AA" d="M274.741,654.737c-0.619,0-1.229,0.037-1.827,0.104c2.028,0.815,3.925,1.991,5.593,3.46
							c6.622,5.836,7.049,15.434,4.553,23.513c-0.812,2.623-2.057,5.144-3.772,7.246c7.089-2.063,12.292-8.815,12.292-16.836
							C291.575,662.569,284.039,654.737,274.741,654.737z"/>
						<g>
							<path fill="#627E82" d="M278.947,679.143c-0.291,0-0.583-0.115-0.808-0.347l-4.587-4.767v-13.848
								c0-0.652,0.511-1.185,1.138-1.185c0.631,0,1.142,0.529,1.142,1.185v12.864l3.919,4.074c0.444,0.46,0.444,1.21,0,1.674
								C279.53,679.026,279.239,679.143,278.947,679.143z"/>
						</g>
						<g>
							<path fill="#A6A5AA" d="M276.657,680.132c-0.294,0-0.585-0.112-0.807-0.344l-4.588-4.771v-13.844
								c0-0.656,0.511-1.185,1.139-1.185c0.631,0,1.141,0.526,1.141,1.185v12.864l3.919,4.072c0.447,0.463,0.447,1.209,0,1.676
								C277.241,680.02,276.95,680.132,276.657,680.132z"/>
						</g>
						<g>
							<g>
								<rect x="274.251" y="654.737" fill="#627E82" width="0.979" height="2.81"/>
							</g>
							<g>
								<rect x="288.874" y="671.715" fill="#627E82" width="2.703" height="1.019"/>
							</g>
							<g>
								<rect x="274.251" y="686.906" fill="#627E82" width="0.979" height="2.806"/>
							</g>
							<g>
								<rect x="274.251" y="654.737" fill="#627E82" width="0.979" height="2.81"/>
							</g>
							<g>
								<g>
									<polygon fill="#627E82" points="266.015,687.188 265.196,686.638 266.661,684.281 267.48,684.828 									"/>
								</g>
								<g>
									<polygon fill="#627E82" points="282.819,660.169 282.001,659.618 283.466,657.263 284.286,657.814 									"/>
								</g>
							</g>
							<g>
								<g>
									<polygon fill="#627E82" points="262.602,664.684 260.335,663.163 260.862,662.311 263.133,663.832 									"/>
								</g>
								<g>
									<polygon fill="#627E82" points="288.616,682.137 286.349,680.616 286.877,679.765 289.146,681.286 									"/>
								</g>
							</g>
							<g>
								<rect x="257.905" y="671.712" fill="#627E82" width="2.7" height="1.013"/>
							</g>
							<g>
								<g>
									<polygon fill="#627E82" points="260.32,681.264 259.84,680.379 262.193,679 262.672,679.884 									"/>
								</g>
								<g>
									<polygon fill="#627E82" points="287.285,665.448 286.808,664.562 289.161,663.184 289.639,664.07 									"/>
								</g>
							</g>
							<g>
								<g>
									<polygon fill="#627E82" points="267.365,659.689 266.038,657.248 266.887,656.75 268.214,659.193 									"/>
								</g>
								<g>
									<polygon fill="#627E82" points="282.59,687.698 281.263,685.257 282.114,684.758 283.442,687.2 									"/>
								</g>
							</g>
						</g>
					</g>
					<g>
						<path fill="#627E82" d="M271.599,691.398v60.819c-1.035,2.153-1.691,5.281-1.7,8.763c-1.85,3.468-3.034,8.772-3.034,14.725
							c0,5.992,1.201,11.332,3.073,14.792c0.146,2.843,0.723,5.371,1.573,7.229l-1.483,14.74c-0.069,0.684,0.519,1.273,1.268,1.273
							h3.935V691.398H271.599L271.599,691.398z"/>
						<path fill="#536C6F" d="M283.119,775.705c0-5.951-1.185-11.257-3.033-14.725c-0.011-4.018-0.88-7.563-2.207-9.688v-59.896
							h-2.65V813.74h2.998c0.751,0,1.338-0.597,1.268-1.278l-1.458-13.88c1.091-1.892,1.845-4.777,2.014-8.086
							C281.917,787.037,283.119,781.698,283.119,775.705z"/>
					</g>
				</g>
				<g>
					<g>
						<g>
							<path fill="#627E82" d="M102.568,755.727H86.152c-1.869,0-3.4,1.529-3.4,3.402v32.486c0,1.874,1.532,3.407,3.4,3.407h6.492
								h3.161h6.764c1.869,0,3.401-1.533,3.401-3.407v-32.486C105.97,757.256,104.438,755.727,102.568,755.727z M101.436,763.59
								c0,1.872-1.528,3.4-3.4,3.4h-7.348c-1.873,0-3.401-1.528-3.401-3.4v-1.438c0-1.869,1.528-3.401,3.401-3.401h7.348
								c1.872,0,3.4,1.532,3.4,3.401V763.59z"/>
							<rect x="92.644" y="795.023" fill="#627E82" width="3.161" height="18.019"/>
						</g>
						<path fill="#DCDDE1" d="M98.544,758.789c1.184,1.845,1.213,4.481-0.998,5.602c-1.564,0.794-8.529,0.496-10.064,0.327
							c0.467,1.316,1.73,2.271,3.207,2.271h7.348c1.872,0,3.4-1.527,3.4-3.4v-1.438C101.436,760.453,100.174,759.036,98.544,758.789
							z"/>
					</g>
					<g>
						<rect x="142.018" y="780.237" fill="#905A1C" width="93.734" height="8.843"/>
						<rect x="142.018" y="789.08" fill="#627E82" width="6.438" height="23.961"/>
						<rect x="229.313" y="789.08" fill="#627E82" width="6.438" height="23.961"/>
					</g>
				</g>
			</g>
		</g>
	</g>
	<g id="Capa_1_1_">
	</g>
</g>
</svg>
